<?xml version="1.0" standalone="yes"?>
<svg xmlns="http://www.w3.org/2000/svg" width="500" height="500">
<path style="fill:#fefefe; stroke:none;" d="M0 0L0 500L500 500L500 0L0 0z"/>
<path style="fill:#3f48cc; stroke:none;" d="M159 73L171 95C190.503 91.1147 211.533 74.1621 229 64.6769C234.372 61.7596 241.804 55.6091 248 55.1768C257.95 54.4827 275.384 68.5942 284 73.4317C313.104 89.7721 342.498 108.478 373 122L385 99L287 44.87L261 30.5683L248 25.1497L223 37.7393L159 73z"/>
<path style="fill:#0090ff; stroke:none;" d="M172 95C173.464 98.4683 176.634 103.054 174.212 106.733C170.139 112.922 157.453 116.919 151 120.268C132.213 130.02 113.843 140.597 95 150.241C89.3886 153.113 75.3601 157.686 73.4123 164.145C68.6495 179.939 73 203.466 73 220C73 227.202 75.0246 237.217 66 239L66 317C66 326.478 62.9929 342.099 66.7173 350.855C70.2814 359.233 91.1319 365.314 99 369.249C121.724 380.612 144.265 392.383 167 403.751C176.986 408.744 188.06 416.821 199 419C208.555 403.852 232.283 433.096 245 433.099C252.234 433.101 261.642 425.93 268 422.751C285.269 414.117 302.725 405.886 320 397.249C329.558 392.47 341.465 382.564 349 394L409 363.751L430.283 351.55L431 326L431 265C419.902 261.153 425 230.001 425 220L425 181C425 176.23 426.419 168.608 423.85 164.375C419.162 156.649 403.655 150.993 396 146.4C384.993 139.796 369.384 135.522 372 121C341.639 106.481 312.474 88.5699 283 72.316C274.397 67.5715 257.927 54.0893 248 54.7278C240.854 55.1874 232.238 62.4352 226 65.7393C208.048 75.248 190.674 86.9983 172 95z"/>
<path style="fill:#3239a1; stroke:none;" d="M151.997 70.7411C141.78 73.0291 131.214 81.3248 122 86.2091C100.967 97.3582 79.7516 108.34 59 120C51.3289 124.31 33.4598 129.682 29.8447 138.126C27.1738 144.364 29 154.305 29 161L29 214C29 219.668 26.5768 232.942 30.8447 237.283C33.2497 239.729 37.9031 238.999 41 239C49.3525 239.004 60.846 241.055 68.8435 238.588C75.1853 236.631 73 225.054 73 220L73 180C73 175.177 71.5916 167.564 74.1497 163.267C78.0162 156.772 91.4748 152.662 98 149.209C115.717 139.833 133.283 130.167 151 120.791C157.675 117.259 169.615 113.603 174.271 107.55C176.819 104.238 174.824 100.189 173.113 97C169.593 90.4366 161.011 68.7224 151.997 70.7411M390.376 92.1803C383.041 96.2939 377.428 112.739 373.436 120C371.874 122.84 369.619 126.486 370.788 129.857C372.424 134.577 380.025 137.415 384 139.8L412 156.6C415.843 158.906 421.528 161.187 423.85 165.227C426.955 170.629 425 180.93 425 187L425 239C425 244.65 422.308 260.194 427.521 263.85C432.039 267.019 442.681 265 448 265C452.56 265 459.493 266.275 463.702 264.283C467.97 262.263 466.999 255.85 467 252L467 216L467 158C467 151.531 469.208 139.972 465.85 134.259C463.522 130.297 457.804 128.214 454 125.983C444.646 120.497 435.299 114.979 426 109.4C417.696 104.418 409.38 99.4619 401 94.6111C397.978 92.8621 393.901 90.2029 390.376 92.1803z"/>
<path style="fill:#ffffff; stroke:none;" d="M233 340C222.351 338.463 212.349 334.363 203 329.124C136.663 291.953 146.074 193.915 214 164.893C244.109 152.028 280.81 157.478 306 178.306C312.384 183.584 317.941 189.386 322.938 196C325.363 199.209 327.407 204.566 331.259 206.283C340.029 210.191 356.42 207 366 207C346.461 141.749 266.578 109.106 205 132.485C159.835 149.632 128.672 190.976 124.197 239C120.544 278.192 137.017 319.081 167 344.541C180.669 356.147 196.653 365.066 214 369.839C217.933 370.921 228.652 375.2 231.85 371.279C236.343 365.772 233 347.01 233 340z"/>
<path style="fill:#8eceff; stroke:none;" d="M260.667 125.333L261.333 125.667L260.667 125.333z"/>
<path style="fill:#ffffff; stroke:none;" d="M210 220L210 252L268 252L268 375L309 375L309 252L369 252L369 220L210 220z"/>
<path style="fill:#a9ade7; stroke:none;" d="M39 239L39 369L40 369L40 279C40 267.196 43.1332 250.06 39 239z"/>
<path style="fill:#3f48cc; stroke:none;" d="M40 239L40 330C40 339.949 36.3674 358.59 40.7173 367.55C42.4082 371.032 47.7666 372.632 51 374.249L78 387.752C102.699 400.162 127.265 412.882 152 425.249C163.102 430.8 174.093 438.384 186 442L198 419C169.629 406.843 141.182 391.37 114 376.676C99.2209 368.687 81.5423 356.287 65 353L65 239L40 239z"/>
<path style="fill:#2368e3; stroke:none;" d="M65 239L65 323C65 330.15 61.8408 347.791 67 353C61.1878 327.233 66 295.427 66 269C66 259.935 68.1842 247.52 65 239M431 265L431 352L432 352L432 293L431 265z"/>
<path style="fill:#3f48cc; stroke:none;" d="M432 265L432 326L430.85 350.733L408 363.751L349 394L361 417C384.981 406.825 407.717 393.393 431 381.751C437.281 378.61 453.123 374.058 456.283 367.55C459.787 360.331 457 345.976 457 338L457 265L432 265z"/>
<path style="fill:#a9ade7; stroke:none;" d="M457 265L457 368L458 368L458 297L457 265z"/>
<path style="fill:#acc8de; stroke:none;" d="M232 373L233 374L232 373z"/>
<path style="fill:#3239a1; stroke:none;" d="M339.997 387.733C331.044 389.639 322.12 395.691 314 399.751C299.393 407.055 284.601 413.948 270 421.249C262.958 424.77 253.868 431.583 246 432.532C237.185 433.594 222.56 421.648 215 417.432C211.278 415.357 205.678 411.532 201.578 414.729C197.783 417.687 195.733 423.887 193.432 428C190.398 433.426 182.416 443.387 183.558 449.874C184.297 454.08 189.66 456.058 193 457.748C202.716 462.666 212.303 467.804 222 472.759C229.359 476.519 242.433 487.255 251 485.715C259.584 484.172 268.308 477.158 276 473.251C295.472 463.359 314.936 453.088 334 442.432C341.944 437.992 356.692 433.803 362.271 426.55C364.807 423.253 362.816 419.235 361.23 416C357.861 409.128 349.256 385.762 339.997 387.733z"/>
</svg>
